<svg xmlns="http://www.w3.org/2000/svg" width="36" height="36" viewBox="0 0 36 36" fill="none">
<mask id="mask0_1672_3501" style="mask-type:alpha" maskUnits="userSpaceOnUse" x="0" y="0" width="36" height="36">
<rect width="36" height="36" fill="#D9D9D9"/>
</mask>
<g mask="url(#mask0_1672_3501)">
<path d="M9.75 16.5L18 3L26.25 16.5H9.75ZM26.25 33C24.375 33 22.781 32.344 21.468 31.032C20.156 29.719 19.5 28.125 19.5 26.25C19.5 24.375 20.156 22.781 21.468 21.468C22.781 20.156 24.375 19.5 26.25 19.5C28.125 19.5 29.719 20.156 31.032 21.468C32.344 22.781 33 24.375 33 26.25C33 28.125 32.344 29.719 31.032 31.032C29.719 32.344 28.125 33 26.25 33ZM4.5 32.25V20.25H16.5V32.25H4.5ZM26.25 30C27.3 30 28.1875 29.6375 28.9125 28.9125C29.6375 28.1875 30 27.3 30 26.25C30 25.2 29.6375 24.3125 28.9125 23.5875C28.1875 22.8625 27.3 22.5 26.25 22.5C25.2 22.5 24.3125 22.8625 23.5875 23.5875C22.8625 24.3125 22.5 25.2 22.5 26.25C22.5 27.3 22.8625 28.1875 23.5875 28.9125C24.3125 29.6375 25.2 30 26.25 30ZM7.5 29.25H13.5V23.25H7.5V29.25ZM15.075 13.5H20.925L18 8.775L15.075 13.5Z" fill="#F79009"/>
</g>
</svg>