<svg xmlns="http://www.w3.org/2000/svg" width="36" height="36" viewBox="0 0 36 36" fill="none">
<mask id="mask0_1672_3159" style="mask-type:alpha" maskUnits="userSpaceOnUse" x="0" y="0" width="36" height="36">
<rect width="36" height="36" fill="#D9D9D9"/>
</mask>
<g mask="url(#mask0_1672_3159)">
<path d="M20.775 31.5751C19.45 31.5751 18.319 31.1191 17.382 30.2071C16.444 29.2941 15.975 28.1751 15.975 26.8501C15.975 26.1001 16.1375 25.3001 16.4625 24.4501C16.7875 23.6001 17.2815 22.7941 17.9445 22.0321C18.6065 21.2691 19.4435 20.5936 20.4555 20.0056C21.4685 19.4186 22.6625 19.0126 24.0375 18.7876C23.9625 17.7876 23.725 17.0811 23.325 16.6681C22.925 16.2561 22.425 16.0501 21.825 16.0501C21.075 16.0501 20.2625 16.3626 19.3875 16.9876C18.5125 17.6126 17.475 18.6376 16.275 20.0626C14.325 22.3876 12.894 23.9001 11.982 24.6001C11.069 25.3001 10.0875 25.6501 9.0375 25.6501C7.7625 25.6501 6.6875 25.1816 5.8125 24.2446C4.9375 23.3066 4.5 22.1751 4.5 20.8501C4.5 19.5251 4.7935 18.1626 5.3805 16.7626C5.9685 15.3626 6.9625 13.6876 8.3625 11.7376C8.8125 11.0876 9.1565 10.5376 9.3945 10.0876C9.6315 9.6376 9.75 9.2751 9.75 9.0001C9.75 8.8251 9.719 8.6936 9.657 8.6056C9.594 8.5186 9.5 8.4751 9.375 8.4751C9.125 8.4751 8.8125 8.6311 8.4375 8.9431C8.0625 9.2561 7.625 9.7251 7.125 10.3501L4.5 7.7251C5.3 6.7501 6.1125 6.0061 6.9375 5.4931C7.7625 4.9811 8.575 4.7251 9.375 4.7251C10.55 4.7251 11.5315 5.1311 12.3195 5.9431C13.1065 6.7561 13.5 7.7501 13.5 8.9251C13.5 9.6501 13.3125 10.4436 12.9375 11.3056C12.5625 12.1686 11.9375 13.2001 11.0625 14.4001C10.1125 15.7501 9.4065 16.9376 8.9445 17.9626C8.4815 18.9876 8.25 19.8626 8.25 20.5876C8.25 21.0126 8.319 21.3376 8.457 21.5626C8.594 21.7876 8.7875 21.9001 9.0375 21.9001C9.3375 21.9001 9.7565 21.6436 10.2945 21.1306C10.8315 20.6186 11.9125 19.4126 13.5375 17.5126C15.1125 15.6376 16.5375 14.3001 17.8125 13.5001C19.0875 12.7001 20.425 12.3001 21.825 12.3001C23.75 12.3001 25.194 12.9376 26.157 14.2126C27.119 15.4876 27.6625 16.9501 27.7875 18.6001H31.5V22.3501H27.7875C27.6375 24.5501 27.025 26.6376 25.95 28.6126C24.875 30.5876 23.15 31.5751 20.775 31.5751ZM20.85 27.8251C21.825 27.8251 22.5565 27.2691 23.0445 26.1571C23.5315 25.0441 23.85 23.8626 24 22.6126C22.6 22.9626 21.5375 23.5686 20.8125 24.4306C20.0875 25.2936 19.725 26.0501 19.725 26.7001C19.725 27.0501 19.825 27.3251 20.025 27.5251C20.225 27.7251 20.5 27.8251 20.85 27.8251Z" fill="#6938EF"/>
</g>
</svg>